<svg xmlns="http://www.w3.org/2000/svg" width="500" height="500" viewBox="0 0 500 500"><path fill="#FFFFFF" d="M0 0 h500 v500 h-500 v-500Z"/><text transform="translate(-161.95999999999998, 19)" fill="#444444" font-family="DejaVu Sans, sans-serif" font-weight="bold" font-size="16" x="250.0" y="12.5">Repeated-prompt prefill: cache on vs off</text><defs><clipPath id="plot-clip"><rect x="0" y="0" width="434.74" height="389.5"/></clipPath></defs><g><path stroke="#cccccc" stroke-dasharray="None" d="M0 0.0 h434.74 M0 77.9 h434.74 M0 155.8 h434.74 M0 233.7 h434.74 M0 311.6 h434.74 M0 389.5 h434.74" transform="translate(40.26, 78.5)"/><g font-size="12" font-family="DejaVu Sans, sans-serif" fill="#000000" transform="translate(34.26, 78.5)"><text x="0" y="0.0" transform="translate(-15.26, 3.5)">90</text><text x="0" y="77.9" transform="translate(-15.26, 3.5)">72</text><text x="0" y="155.8" transform="translate(-15.26, 3.5)">54</text><text x="0" y="233.7" transform="translate(-15.26, 3.5)">36</text><text x="0" y="311.6" transform="translate(-15.26, 3.5)">18</text><text x="0" y="389.5" transform="translate(-7.63, 3.5)">0</text></g></g><g><path stroke="#cccccc" stroke-dasharray="None" d="M0.0 0 v389.5 M62.105714285714285 0 v389.5 M124.21142857142857 0 v389.5 M186.31714285714284 0 v389.5 M248.42285714285714 0 v389.5 M310.52857142857147 0 v389.5 M372.6342857142857 0 v389.5 M434.74 0 v389.5" transform="translate(40.26, 78.5)"/><g font-size="12" font-family="DejaVu Sans, sans-serif" fill="#000000" transform="translate(40.26, 96.5)"><text x="0.0" y="389.5" transform="translate(-1.905, 0)"> </text><text x="62.105714285714285" y="389.5" transform="translate(-7.29, 0)">1k</text><text x="124.21142857142857" y="389.5" transform="translate(-7.29, 0)">2k</text><text x="186.31714285714284" y="389.5" transform="translate(-7.29, 0)">4k</text><text x="248.42285714285714" y="389.5" transform="translate(-7.29, 0)">8k</text><text x="310.52857142857147" y="389.5" transform="translate(-11.105, 0)">16k</text><text x="372.6342857142857" y="389.5" transform="translate(-11.105, 0)">32k</text><text x="434.74" y="389.5" transform="translate(-1.905, 0)"> </text></g></g><g opacity="0.8" transform="translate(-25.0, -32) rotate(180, 250.0, 250.0) scale(-1, 1) translate(-434.74, 0) translate(-22.88105263157895, 0)"><path d="M50.7 0 h22.9 v0.8 h-22.9 v-0.8Z M119.3 0 h22.9 v0.9 h-22.9 v-0.9Z M188.0 0 h22.9 v1.3 h-22.9 v-1.3Z M256.6 0 h22.9 v1.2 h-22.9 v-1.2Z M325.2 0 h22.9 v1.7 h-22.9 v-1.7Z M393.9 0 h22.9 v2.8 h-22.9 v-2.8Z" fill="#41b6a6"/><path d="M73.5 0 h22.9 v10.3 h-22.9 v-10.3Z M142.2 0 h22.9 v18.5 h-22.9 v-18.5Z M210.8 0 h22.9 v37.0 h-22.9 v-37.0Z M279.5 0 h22.9 v75.2 h-22.9 v-75.2Z M348.1 0 h22.9 v162.6 h-22.9 v-162.6Z M416.8 0 h22.9 v384.4 h-22.9 v-384.4Z" fill="#d9594c"/></g><g><rect x="177.445" y="56.5" width="11.0" height="11.0" fill="#41b6a6"/><text x="194.445" y="65.85" fill="#444444" font-size="11" font-family="DejaVu Sans, sans-serif" text-anchor="start">cache ON</text><rect x="263.41499999999996" y="56.5" width="11.0" height="11.0" fill="#d9594c"/><text x="280.41499999999996" y="65.85" fill="#444444" font-size="11" font-family="DejaVu Sans, sans-serif" text-anchor="start">cache OFF</text></g><path d="M40.26 78.5 v389.5 M40.26 468.0 h434.74" stroke="#999" stroke-width="1.5" fill="none"/></svg>