<?xml version="1.0" encoding="UTF-8" standalone="no"?>
<!-- Created with Inkscape (http://www.inkscape.org/) -->

<svg
   width="59.665318mm"
   height="24.387482mm"
   viewBox="0 0 59.665318 24.387482"
   version="1.1"
   id="svg1"
   xml:space="preserve"
   xmlns="http://www.w3.org/2000/svg"
   xmlns:svg="http://www.w3.org/2000/svg"><defs
     id="defs1"><clipPath
       clipPathUnits="userSpaceOnUse"
       id="clipPath6"><path
         style="font-weight:900;font-size:11.2889px;font-family:Roboto;-inkscape-font-specification:'Roboto Heavy';letter-spacing:-0.264583px;display:inline;fill:#000000;stroke-width:4.23117;paint-order:fill markers stroke"
         d="m 99.788171,116.11569 v -6.63742 l 0.245439,-1.18544 h 1.52488 v 7.82286 z m -3.467546,-4.94542 v -0.10967 q 0,-0.64233 0.141001,-1.16978 0.141001,-0.53266 0.417773,-0.90865 0.276782,-0.38123 0.684115,-0.58489 0.412553,-0.20889 0.950438,-0.20889 0.506553,0 0.866886,0.21933 0.365552,0.21933 0.610995,0.61623 0.245437,0.39166 0.396887,0.9191 0.15667,0.52744 0.24544,1.13844 v 0.13055 q -0.0888,0.57445 -0.24544,1.08622 -0.15145,0.51178 -0.396887,0.90866 -0.245443,0.39167 -0.610995,0.61622 -0.365553,0.22456 -0.877337,0.22456 -0.532664,0 -0.939987,-0.21412 -0.407333,-0.21933 -0.684115,-0.60577 -0.276772,-0.39166 -0.417773,-0.91389 -0.141001,-0.52743 -0.141001,-1.14365 z m 1.759883,-0.10967 v 0.10967 q 0,0.31855 0.04178,0.59533 0.04178,0.27155 0.140991,0.48044 0.104451,0.20888 0.271562,0.329 0.167112,0.11489 0.417774,0.11489 0.381222,0 0.600554,-0.16711 0.219332,-0.16712 0.308112,-0.46478 0.08877,-0.30289 0.07314,-0.70499 v -0.41256 q 0.0057,-0.34467 -0.04178,-0.60577 -0.04699,-0.26111 -0.161891,-0.43345 -0.109661,-0.17756 -0.297662,-0.26633 -0.188001,-0.0888 -0.470004,-0.0888 -0.245442,0 -0.417773,0.11489 -0.167111,0.10966 -0.271552,0.31334 -0.09922,0.20366 -0.146222,0.48044 -0.04699,0.27677 -0.04699,0.60577 z"
         id="path6" /></clipPath></defs><g
     id="layer1"
     transform="translate(-103.42211,-106.33608)"><g
       id="text1"
       style="font-weight:800;font-size:11.2889px;font-family:'JetBrains Mono';-inkscape-font-specification:'JetBrains Mono Ultra-Bold';letter-spacing:-0.264583px;fill:#f9f9f9;stroke-width:4.23117;paint-order:fill markers stroke"
       aria-label="qMLX"
       transform="matrix(2.3634123,0,0,2.3634123,-138.84254,-144.97992)"><g
         id="g5"
         transform="matrix(1.0555246,0,0,1.0555246,0.83751108,-5.9081291)"
         style="font-weight:800;font-size:11.2889px;font-family:'JetBrains Mono';-inkscape-font-specification:'JetBrains Mono Ultra-Bold';letter-spacing:-0.264583px;fill:#f9f9f9;stroke-width:4.00859;paint-order:fill markers stroke"
         clip-path="url(#clipPath6)"><g
           id="g6"
           transform="rotate(45.549455,98.580671,111.41571)"><rect
             style="font-weight:800;font-size:11.2889px;font-family:'JetBrains Mono';-inkscape-font-specification:'JetBrains Mono Ultra-Bold';letter-spacing:-0.264583px;fill:#2f9d8d;fill-opacity:1;stroke-width:4.00859;paint-order:fill markers stroke"
             id="rect5-0"
             width="9.3306618"
             height="3.3774688"
             x="93.915337"
             y="106.34952" /><rect
             style="font-weight:800;font-size:11.2889px;font-family:'JetBrains Mono';-inkscape-font-specification:'JetBrains Mono Ultra-Bold';letter-spacing:-0.264583px;fill:#e8b04b;fill-opacity:1;stroke-width:4.00859;paint-order:fill markers stroke"
             id="rect5-0-3"
             width="9.3306618"
             height="2.6609554"
             x="93.915337"
             y="109.72697" /><rect
             style="font-weight:800;font-size:11.2889px;font-family:'JetBrains Mono';-inkscape-font-specification:'JetBrains Mono Ultra-Bold';letter-spacing:-0.264583px;fill:#d9594c;fill-opacity:1;stroke-width:4.0086;paint-order:fill markers stroke"
             id="rect5-0-3-7"
             width="12.219591"
             height="5.3611693"
             x="94.3433"
             y="111.5773"
             transform="matrix(0.99999838,0.0018007,0.00180083,0.99999838,0,0)" /></g></g><path
         style="font-weight:500;font-family:Roboto;-inkscape-font-specification:'Roboto Medium';display:inline;fill:#333333;stroke-width:4.23117"
         d="m 109.00041,106.33608 h 1.23472 l 2.32062,6.19015 2.31511,-6.19015 h 1.23472 l -3.06476,8.0257 h -0.98116 z m -0.56224,0 h 1.17409 l 0.20395,5.35781 v 2.66789 h -1.37804 z m 7.05556,0 h 1.1796 v 8.0257 h -1.38355 v -2.66789 z m 6.68362,6.92878 v 1.09692 h -4.02939 v -1.09692 z m -3.64354,-6.92878 v 8.0257 h -1.38355 v -8.0257 z m 4.15774,0 1.70325,2.92695 1.70326,-2.92695 h 1.59302 l -2.42535,3.97426 2.48598,4.05144 h -1.60955 l -1.74736,-2.98208 -1.74735,2.98208 h -1.61506 l 2.49149,-4.05144 -2.43086,-3.97426 z"
         id="path5" /></g></g></svg>
